# xmcd CD database file
#
# Track frame offsets:
#	183
#	17075
#	31520
#	52068
#	62973
#	74918
#	85525
#	99335
#	112190
#	127215
#	142178
#	155773
#
# Disc length: 2246 seconds
#
# Revision: 1
# Processed by: cddbd v1.5.2PL0 Copyright (c) Steve Scherf et al.
# Submitted via: CDex 1.70beta2
#
DISCID=b308c40c
DTITLE=Jeff Turner - Rolling Wheels
DYEAR=1987
DGENRE=Country
TTITLE0=Brother Highway
TTITLE1=Ghost Train
TTITLE2=Money Won't Buy Her
TTITLE3=One Small Photograph of You
TTITLE4=Movin' On
TTITLE5=Road-Show
TTITLE6=Truck Driving Man
TTITLE7=A Picture Of My Darling
TTITLE8=Travellin' Makin' Music
TTITLE9=King Of The Road
TTITLE10=Four Wheel Driving' Man
TTITLE11=I've Been Everywhere
EXTD=YEAR: 1987
EXTT0=
EXTT1=
EXTT2=
EXTT3=
EXTT4=
EXTT5=
EXTT6=
EXTT7=
EXTT8=
EXTT9=
EXTT10=
EXTT11=
PLAYORDER=
